HIERARCHY
ROOT Hips
{
	OFFSET 0.000000 0.000000 0.000000
	CHANNELS 6 Xposition Yposition Zposition Xrotation Yrotation Zrotation
	JOINT Spine
	{
		OFFSET 0.000000 0.053497 0.080245
		CHANNELS 3 Xrotation Yrotation Zrotation
		JOINT Spine1
		{
			OFFSET 0.000000 0.018579 0.105368
			CHANNELS 3 Xrotation Yrotation Zrotation
			JOINT Spine2
			{
				OFFSET 0.000000 0.009325 0.106586
				CHANNELS 3 Xrotation Yrotation Zrotation
				JOINT Spine3
				{
					OFFSET 0.000000 0.000000 0.106993
					CHANNELS 3 Xrotation Yrotation Zrotation
					JOINT Neck
					{
						OFFSET 0.000000 -0.040122 0.280858
						CHANNELS 3 Xrotation Yrotation Zrotation
						JOINT Head
						{
							OFFSET 0.000000 -0.025546 0.144881
							CHANNELS 3 Xrotation Yrotation Zrotation
							End Site
							{
								OFFSET 0.000000 0.000000 0.000000
							}
						}
					}
					JOINT RightShoulder
					{
						OFFSET -0.032541 -0.054234 0.175720
						CHANNELS 3 Xrotation Yrotation Zrotation
						JOINT RightArm
						{
							OFFSET -0.161619 0.000000 0.000000
							CHANNELS 3 Xrotation Yrotation Zrotation
							JOINT RightForeArm
							{
								OFFSET -0.257104 0.000000 0.000000
								CHANNELS 3 Xrotation Yrotation Zrotation
								JOINT RightHand
								{
									OFFSET -0.273485 0.000000 0.000000
									CHANNELS 3 Xrotation Yrotation Zrotation
									JOINT RightHandEnd
									{
										OFFSET -0.070844 0.000000 0.000000
										CHANNELS 3 Xrotation Yrotation Zrotation
										End Site
										{
											OFFSET 0.000000 0.000000 0.000000
										}
									}
									JOINT RightHandThumb1
									{
										OFFSET -0.028338 -0.047230 -0.018892
										CHANNELS 3 Xrotation Yrotation Zrotation
										End Site
										{
											OFFSET 0.000000 0.000000 0.000000
										}
									}
								}
							}
						}
					}
					JOINT LeftShoulder
					{
						OFFSET 0.032541 -0.054234 0.175720
						CHANNELS 3 Xrotation Yrotation Zrotation
						JOINT LeftArm
						{
							OFFSET 0.161619 0.000000 0.000000
							CHANNELS 3 Xrotation Yrotation Zrotation
							JOINT LeftForeArm
							{
								OFFSET 0.257104 0.000000 0.000000
								CHANNELS 3 Xrotation Yrotation Zrotation
								JOINT LeftHand
								{
									OFFSET 0.273485 0.000000 0.000000
									CHANNELS 3 Xrotation Yrotation Zrotation
									JOINT LeftHandEnd
									{
										OFFSET 0.070844 0.000000 0.000000
										CHANNELS 3 Xrotation Yrotation Zrotation
										End Site
										{
											OFFSET 0.000000 0.000000 0.000000
										}
									}
									JOINT LeftHandThumb1
									{
										OFFSET 0.028338 -0.047230 -0.018892
										CHANNELS 3 Xrotation Yrotation Zrotation
										End Site
										{
											OFFSET 0.000000 0.000000 0.000000
										}
									}
								}
							}
						}
					}
				}
			}
		}
	}
	JOINT RightUpLeg
	{
		OFFSET -0.096537 0.000000 -0.028202
		CHANNELS 3 Xrotation Yrotation Zrotation
		JOINT RightLeg
		{
			OFFSET 0.000000 0.000000 -0.431842
			CHANNELS 3 Xrotation Yrotation Zrotation
			JOINT RightFoot
			{
				OFFSET 0.000000 0.000000 -0.456398
				CHANNELS 3 Xrotation Yrotation Zrotation
				JOINT RightToeBase
				{
					OFFSET 0.000000 -0.128905 -0.046918
					CHANNELS 3 Xrotation Yrotation Zrotation
					End Site
					{
						OFFSET 0.000000 0.000000 0.000000
					}
				}
			}
		}
	}
	JOINT LeftUpLeg
	{
		OFFSET 0.096537 0.000000 -0.028202
		CHANNELS 3 Xrotation Yrotation Zrotation
		JOINT LeftLeg
		{
			OFFSET 0.000000 0.000000 -0.431842
			CHANNELS 3 Xrotation Yrotation Zrotation
			JOINT LeftFoot
			{
				OFFSET 0.000000 0.000000 -0.456398
				CHANNELS 3 Xrotation Yrotation Zrotation
				JOINT LeftToeBase
				{
					OFFSET 0.000000 -0.128905 -0.046918
					CHANNELS 3 Xrotation Yrotation Zrotation
					End Site
					{
						OFFSET 0.000000 0.000000 0.000000
					}
				}
			}
		}
	}
}
MOTION
Frames: 6
Frame Time: 0.033333
0.261429 1.429131 0.963247 2.634600 0.835300 1.558000 -0.237400 1.244600 0.304900 0.043700 -0.052100 0.032300 -0.357100 -2.129600 0.854500 -0.182300 -1.355000 1.537400 1.147700 -2.461500 3.422500 -0.582100 2.480700 5.922500 -7.591700 8.055700 0.676700 -19.977300 -5.319000 -24.684000 0.000000 0.000000 29.969700 5.099100 9.341400 1.346400 0.000000 0.000000 0.000000 0.000000 0.000000 0.000000 -11.326600 -10.346200 -5.824600 -5.749300 11.051700 23.578000 0.000000 0.000000 -22.589700 -15.512300 -12.907000 7.259900 0.000000 0.000000 0.000000 0.000000 0.000000 0.000000 -1.317400 0.848100 -27.243500 5.903700 0.000000 0.000000 -6.381300 -2.862100 1.427100 1.805600 0.000000 0.000000 -1.137800 -2.065600 18.701100 4.106200 0.000000 0.000000 -10.095200 23.531300 9.356400 10.657500 0.000000 0.000000 
0.261209 1.429108 0.963229 2.625500 0.806100 1.539100 -0.212500 1.253100 0.295000 0.054000 -0.037200 0.032000 -0.350400 -2.147200 0.850200 -0.178600 -1.364100 1.550100 1.212500 -2.457400 3.416800 -0.637000 2.469500 5.910100 -7.591000 8.086700 0.661600 -20.011700 -5.364900 -24.684400 0.000000 0.000000 29.980900 5.129600 9.360000 1.338200 0.000000 0.000000 0.000000 0.000000 0.000000 0.000000 -11.302000 -10.365100 -5.832900 -5.809000 11.053200 23.544200 0.000000 0.000000 -22.588200 -15.593800 -12.902600 7.233600 0.000000 0.000000 0.000000 0.000000 0.000000 0.000000 -1.412800 0.902800 -27.041300 6.115600 0.000000 0.000000 -6.490400 -2.811700 1.257200 1.794900 0.000000 0.000000 -1.068300 -2.035300 18.816200 3.994800 0.000000 0.000000 -10.001400 23.565000 9.258100 10.643600 0.000000 0.000000 
0.260772 1.428984 0.963198 2.624000 0.771900 1.542000 -0.189000 1.266100 0.276600 0.067800 -0.014000 0.030300 -0.339600 -2.181000 0.819800 -0.173700 -1.372300 1.557700 1.344500 -2.457000 3.409500 -0.727400 2.422900 5.905900 -7.584600 8.121100 0.646900 -19.991800 -5.449800 -24.685900 0.000000 0.000000 30.019100 5.158900 9.412500 1.303000 0.000000 0.000000 0.000000 0.000000 0.000000 0.000000 -11.258900 -10.392400 -5.827400 -5.891700 11.045200 23.465600 0.000000 0.000000 -22.590900 -15.683700 -12.881200 7.173500 0.000000 0.000000 0.000000 0.000000 0.000000 0.000000 -1.526100 0.953300 -26.803700 6.364700 0.000000 0.000000 -6.634600 -2.741100 1.035200 1.769500 0.000000 0.000000 -0.976400 -2.008500 19.002300 3.831100 0.000000 0.000000 -9.850000 23.640500 9.065900 10.596100 0.000000 0.000000 
0.260210 1.428681 0.963171 2.626000 0.748600 1.628500 -0.178700 1.273700 0.262200 0.073500 0.007900 0.025000 -0.315300 -2.206300 0.735300 -0.164400 -1.367800 1.545200 1.494100 -2.480600 3.372400 -0.807900 2.356100 5.909200 -7.576800 8.131000 0.615000 -19.908400 -5.544700 -24.679400 0.000000 0.000000 30.072900 5.195800 9.419500 1.286500 0.000000 0.000000 0.000000 0.000000 0.000000 0.000000 -11.237500 -10.423700 -5.812500 -5.961800 11.016300 23.332100 0.000000 0.000000 -22.590500 -15.657200 -12.800600 7.134500 0.000000 0.000000 0.000000 0.000000 0.000000 0.000000 -1.559700 0.961900 -26.732400 6.486200 0.000000 0.000000 -6.736500 -2.701600 0.892700 1.730900 0.000000 0.000000 -0.932200 -2.009500 19.045200 3.751400 0.000000 0.000000 -9.761200 23.696400 8.937700 10.559400 0.000000 0.000000 
0.259613 1.428189 0.963150 2.624700 0.740000 1.802300 -0.186800 1.269900 0.258500 0.061500 0.028800 0.024800 -0.261600 -2.225300 0.598700 -0.144600 -1.351800 1.522400 1.614700 -2.518100 3.285400 -0.856200 2.315400 5.891200 -7.574300 8.121100 0.546000 -19.829200 -5.613400 -24.664100 0.000000 0.000000 30.127300 5.252200 9.366500 1.309800 0.000000 0.000000 0.000000 0.000000 0.000000 0.000000 -11.236800 -10.457600 -5.812700 -6.009700 10.993400 23.154600 0.000000 0.000000 -22.578900 -15.495300 -12.652100 7.137500 0.000000 0.000000 0.000000 0.000000 0.000000 0.000000 -1.488200 0.923300 -26.839200 6.444500 0.000000 0.000000 -6.779000 -2.694400 0.834100 1.700900 0.000000 0.000000 -0.963700 -2.045100 18.872900 3.824000 0.000000 0.000000 -9.784100 23.705500 8.948800 10.552300 0.000000 0.000000 
0.258976 1.427543 0.963125 2.628800 0.745700 1.983400 -0.217400 1.261700 0.261900 0.032800 0.038500 0.020800 -0.179500 -2.258100 0.477900 -0.115500 -1.336800 1.506700 1.702400 -2.539400 3.174500 -0.888100 2.321700 5.836800 -7.577900 8.121200 0.452700 -19.802100 -5.654400 -24.650200 0.000000 0.000000 30.197500 5.303900 9.361300 1.311300 0.000000 0.000000 0.000000 0.000000 0.000000 0.000000 -11.212400 -10.477600 -5.833600 -6.021000 11.005300 22.973300 0.000000 0.000000 -22.589400 -15.305700 -12.470000 7.144600 0.000000 0.000000 0.000000 0.000000 0.000000 0.000000 -1.372800 0.848900 -26.966200 6.319500 0.000000 0.000000 -6.795200 -2.676700 0.783000 1.694200 0.000000 0.000000 -1.031000 -2.108700 18.659400 3.974000 0.000000 0.000000 -9.854300 23.713700 9.009400 10.532500 0.000000 0.000000 
